<svg width="512" height="512" viewBox="0 0 512 512" fill="none" xmlns="http://www.w3.org/2000/svg">
  <defs>
    <linearGradient id="mainGradient" x1="0" y1="0" x2="512" y2="512" gradientUnits="userSpaceOnUse">
      <stop stop-color="#0f172a" /> <stop offset="1" stop-color="#1e293b" /> </linearGradient>
    <linearGradient id="accentGradient" x1="0" y1="0" x2="100%" y2="100%">
      <stop stop-color="#3b82f6" /> <stop offset="1" stop-color="#8b5cf6" /> </linearGradient>
  </defs>

  <rect width="512" height="512" rx="128" fill="url(#mainGradient)" />

  <path d="M192 140V112C192 94.3269 206.327 80 224 80H288C305.673 80 320 94.3269 320 112V140" stroke="white" stroke-width="32" stroke-linecap="round" />

  <rect x="96" y="140" width="320" height="260" rx="40" stroke="white" stroke-width="32" fill="none" />

  <path d="M430 60L440 90L470 100L440 110L430 140L420 110L390 100L420 90Z" fill="#fbbf24" />
  
  <path d="M176 260L236 320L336 220" stroke="url(#accentGradient)" stroke-width="48" stroke-linecap="round" stroke-linejoin="round" />
  
  <circle cx="380" cy="180" r="12" fill="#fbbf24" fill-opacity="0.8" />
</svg>